<svg width="62" height="44" viewBox="0 0 62 44" fill="none" xmlns="http://www.w3.org/2000/svg">
<path d="M57.25 0.75H4.75C3.58968 0.75 2.47688 1.19777 1.65641 1.9948C0.835936 2.79183 0.375 3.87283 0.375 5V39C0.375 40.1272 0.835936 41.2082 1.65641 42.0052C2.47688 42.8022 3.58968 43.25 4.75 43.25H57.25C58.4103 43.25 59.5231 42.8022 60.3436 42.0052C61.1641 41.2082 61.625 40.1272 61.625 39V5C61.625 3.87283 61.1641 2.79183 60.3436 1.9948C59.5231 1.19777 58.4103 0.75 57.25 0.75V0.75ZM52.4375 5L31 19.4075L9.5625 5H52.4375ZM4.75 39V6.93375L29.7531 23.7425C30.1193 23.9893 30.5543 24.1215 31 24.1215C31.4457 24.1215 31.8807 23.9893 32.2469 23.7425L57.25 6.93375V39H4.75Z" fill="black"/>
</svg>
