<svg width="42" height="42" viewBox="0 0 42 42" fill="none" xmlns="http://www.w3.org/2000/svg">
<path d="M20.9812 0.57657C9.38906 0.571883 0 9.95625 0 21.5391C0 30.6984 5.87344 38.4844 14.0531 41.3437C15.1547 41.6203 14.9859 40.8375 14.9859 40.3031V36.6703C8.625 37.4156 8.36719 33.2062 7.94062 32.5031C7.07812 31.0312 5.03906 30.6562 5.64844 29.9531C7.09687 29.2078 8.57344 30.1406 10.2844 32.6672C11.5219 34.5 13.9359 34.1906 15.1594 33.8859C15.4266 32.7844 15.9984 31.8 16.7859 31.0359C10.1953 29.8547 7.44844 25.8328 7.44844 21.0516C7.44844 18.7312 8.2125 16.5984 9.7125 14.8781C8.75625 12.0422 9.80156 9.61407 9.94219 9.25313C12.6656 9.00938 15.4969 11.2031 15.7172 11.3766C17.2641 10.9594 19.0312 10.7391 21.0094 10.7391C22.9969 10.7391 24.7687 10.9688 26.3297 11.3906C26.8594 10.9875 29.4844 9.10313 32.0156 9.33282C32.1516 9.69375 33.1734 12.0656 32.2734 14.8641C33.7922 16.5891 34.5656 18.7406 34.5656 21.0656C34.5656 25.8562 31.8 29.8828 25.1906 31.0453C25.7567 31.602 26.2062 32.266 26.5129 32.9984C26.8195 33.7308 26.9771 34.5169 26.9766 35.3109V40.5844C27.0141 41.0062 26.9766 41.4234 27.6797 41.4234C35.9812 38.625 41.9578 30.7828 41.9578 21.5437C41.9578 9.95625 32.5641 0.57657 20.9812 0.57657Z" fill="black"/>
</svg>
