<svg width="39" height="39" viewBox="0 0 39 39" fill="none" xmlns="http://www.w3.org/2000/svg">
<path d="M37.1094 0.359375H1.89062C1.04365 0.359375 0.359375 1.04365 0.359375 1.89062V37.1094C0.359375 37.9563 1.04365 38.6406 1.89062 38.6406H37.1094C37.9563 38.6406 38.6406 37.9563 38.6406 37.1094V1.89062C38.6406 1.04365 37.9563 0.359375 37.1094 0.359375ZM11.7146 32.9798H6.03457V14.7101H11.7146V32.9798ZM8.87695 12.2122C8.22582 12.2122 7.58931 12.0191 7.04791 11.6574C6.50651 11.2956 6.08455 10.7815 5.83537 10.1799C5.58619 9.57832 5.52099 8.91637 5.64802 8.27775C5.77505 7.63912 6.0886 7.05251 6.54903 6.59209C7.00945 6.13167 7.59606 5.81812 8.23468 5.69109C8.8733 5.56406 9.53525 5.62926 10.1368 5.87843C10.7384 6.12761 11.2526 6.54958 11.6143 7.09098C11.9761 7.63238 12.1691 8.26889 12.1691 8.92002C12.1644 10.7384 10.6905 12.2122 8.87695 12.2122ZM32.9798 32.9798H27.3046V24.0938C27.3046 21.9739 27.2663 19.2512 24.3521 19.2512C21.3997 19.2512 20.9451 21.5576 20.9451 23.9406V32.9798H15.2747V14.7101H20.7202V17.2079H20.7968C21.5528 15.7724 23.4047 14.2555 26.1705 14.2555C31.9223 14.2555 32.9798 18.0405 32.9798 22.9597V32.9798Z" fill="black"/>
</svg>
